<svg width="22" height="22" viewBox="0 0 22 22" fill="none" xmlns="http://www.w3.org/2000/svg">
<path d="M19.6429 1.375H2.35714C1.05531 1.375 0 2.2984 0 3.4375V18.5625C0 19.7016 1.05531 20.625 2.35714 20.625H19.6429C20.9447 20.625 22 19.7016 22 18.5625V3.4375C22 2.2984 20.9447 1.375 19.6429 1.375ZM19.6429 18.5625H2.35714V3.4375H19.6429V18.5625ZM17.8817 8.17592L9.40633 15.5323C9.17528 15.7329 8.80216 15.7316 8.57298 15.5294L4.11498 11.5971C3.8858 11.3949 3.88727 11.0684 4.11837 10.8679L5.23404 9.89953C5.46508 9.69899 5.8382 9.70028 6.06738 9.90249L9.0036 12.4925L15.945 6.46761C16.176 6.26708 16.5492 6.26837 16.7783 6.47054L17.885 7.4467C18.1142 7.64891 18.1127 7.97539 17.8817 8.17592Z" fill="#8DC8FF"/>
</svg>
